<svg width="94" height="93" viewBox="0 0 94 93" fill="none" xmlns="http://www.w3.org/2000/svg">
<path d="M57.9086 8.7973C57.9086 13.6559 53.9173 17.5946 48.9938 17.5946C44.0704 17.5946 40.0791 13.6559 40.0791 8.7973C40.0791 3.93868 44.0704 0 48.9938 0C53.9173 0 57.9086 3.93868 57.9086 8.7973Z" fill="#56CCF2"/>
<path d="M27.3438 25.1351C31.5639 25.1351 34.985 21.7591 34.985 17.5946C34.985 13.4301 31.5639 10.0541 27.3438 10.0541C23.1237 10.0541 19.7026 13.4301 19.7026 17.5946C19.7026 21.7591 23.1237 25.1351 27.3438 25.1351Z" fill="#56CCF2"/>
<path d="M46.4468 40.2162C49.9635 40.2162 52.8144 37.4029 52.8144 33.9324C52.8144 30.462 49.9635 27.6486 46.4468 27.6486C42.93 27.6486 40.0791 30.462 40.0791 33.9324C40.0791 37.4029 42.93 40.2162 46.4468 40.2162Z" fill="#56CCF2"/>
<path d="M12.4915 78.435H4.16385L4.11908 74.0812H11.2603C12.4841 74.0812 13.5064 73.9092 14.3272 73.565C15.1481 73.2209 15.7674 72.7197 16.1853 72.0614C16.6181 71.4031 16.8345 70.6027 16.8345 69.6601C16.8345 68.6128 16.633 67.76 16.2301 67.1017C15.842 66.4434 15.2301 65.9647 14.3944 65.6654C13.5586 65.3512 12.499 65.1942 11.2155 65.1942H6.15623V92.9999H0V60.3242H11.2155C13.0661 60.3242 14.7152 60.5038 16.1629 60.8628C17.6255 61.2069 18.8642 61.7456 19.879 62.4787C20.8939 63.2118 21.6625 64.1319 22.1848 65.239C22.7221 66.3462 22.9907 67.6628 22.9907 69.1888C22.9907 70.5354 22.6773 71.7772 22.0505 72.9142C21.4386 74.0363 20.4909 74.949 19.2074 75.6522C17.9389 76.3553 16.3271 76.7593 14.372 76.864L12.4915 78.435ZM12.2229 92.9999H2.35056L4.92498 88.1524H12.2229C13.4467 88.1524 14.4541 87.9504 15.2451 87.5465C16.051 87.1425 16.6479 86.5889 17.036 85.8858C17.4389 85.1676 17.6404 84.3447 17.6404 83.4171C17.6404 82.3997 17.4613 81.517 17.1031 80.769C16.7599 80.0209 16.2077 79.4449 15.4465 79.0409C14.7003 78.637 13.7153 78.435 12.4915 78.435H6.08907L6.13384 74.0812H14.2824L15.6928 75.7644C17.5732 75.7793 19.103 76.1534 20.282 76.8865C21.4759 77.6196 22.3564 78.5622 22.9236 79.7142C23.4907 80.8662 23.7742 82.108 23.7742 83.4396C23.7742 85.5342 23.319 87.2921 22.4087 88.7135C21.5132 90.1348 20.1999 91.2045 18.4687 91.9227C16.7524 92.6408 14.6705 92.9999 12.2229 92.9999Z" fill="#00024C"/>
<path d="M50.7049 88.1524V92.9999H33.3779V88.1524H50.7049ZM35.2584 60.3242V92.9999H29.1022V60.3242H35.2584ZM48.4439 73.8119V78.5472H33.3779V73.8119H48.4439ZM50.6378 60.3242V65.1942H33.3779V60.3242H50.6378Z" fill="#00024C"/>
<path d="M81.1727 60.3242V92.9999H74.994L61.1369 70.3334V92.9999H54.9807V60.3242H61.1369L75.0388 83.0132V60.3242H81.1727Z" fill="#00024C"/>
<path d="M94 60.3242V92.9999H87.8438V60.3242H94Z" fill="#00024C"/>
</svg>
