<svg width="17" height="13" viewBox="0 0 17 13" fill="none" xmlns="http://www.w3.org/2000/svg">
<path d="M8.5 0.125C13.1944 0.125 15.5833 2.95833 17 6.5L16.8415 6.88345C15.4065 10.244 13.0237 12.875 8.5 12.875C3.80558 12.875 1.41667 10.0417 0 6.5C1.41667 2.95833 3.80558 0.125 8.5 0.125ZM8.5 1.54167C5.16678 1.54167 3.06756 3.13307 1.61102 6.33291L1.53637 6.5L1.61102 6.66709C3.03368 9.79252 5.06949 11.3834 8.26944 11.4558L8.5 11.4583C11.8332 11.4583 13.9324 9.86693 15.389 6.66709L15.4629 6.5L15.389 6.33291C13.9663 3.20748 11.9305 1.61656 8.73056 1.54425L8.5 1.54167ZM8.5 2.95833C10.456 2.95833 12.0417 4.54399 12.0417 6.5C12.0417 8.45601 10.456 10.0417 8.5 10.0417C6.54399 10.0417 4.95833 8.45601 4.95833 6.5C4.95833 4.54399 6.54399 2.95833 8.5 2.95833ZM8.5 4.375C7.32639 4.375 6.375 5.32639 6.375 6.5C6.375 7.6736 7.32639 8.625 8.5 8.625C9.6736 8.625 10.625 7.6736 10.625 6.5C10.625 5.32639 9.6736 4.375 8.5 4.375Z" fill="#6D7C85"/>
</svg>
